<?xml version="1.0" encoding="UTF-8"?>
<svg clip-rule="evenodd" fill-rule="evenodd" image-rendering="optimizeQuality" shape-rendering="geometricPrecision" text-rendering="geometricPrecision" version="1.1" viewBox="0 0 150 42.159" xml:space="preserve" xmlns="http://www.w3.org/2000/svg">
 <defs>
  <style type="text/css">
   <![CDATA[
    .fil0 {fill:#60A44D}
   ]]>
  </style>
 </defs>
 
  
  <path class="fil0" d="m24.815 4.6622c7.8415 2.4166 13.53 9.7093 13.53 18.335 0 10.593-8.5758 19.162-19.162 19.162-10.593 0-19.183-8.5687-19.183-19.162 0-8.8609 5.9952-16.318 14.172-18.513-0.44911 0.84831-0.88396 1.7109-1.3331 2.5735l-3.1295 5.5889c-2.0958 3.4004-4.4839 6.2447-4.4839 10.515 0 6.5513 4.0134 12.767 10.586 14.336 0.94098 0.21386 1.9105 0.34218 2.8657 0.34218h1.8321c0.88396 0 1.7679-0.10693 2.6305-0.30653 6.594-1.4756 10.828-7.7988 10.828-14.371 0-3.4004-2.4523-7.5136-4.32-10.287-1.7537-2.5735-3.3148-5.3822-4.8332-8.2122zm33.483 18.321c0 0.64871-0.07129 1.2404-0.23525 1.7964-0.16396 0.56316-0.43485 1.0479-0.80554 1.4614-0.37782 0.41346-0.90534 0.74138-1.5683 0.9695-0.6701 0.25663-1.497 0.37782-2.4879 0.37782h-0.54178c-0.68435 0-1.3687-0.01426-2.0174-0.01426-0.66297-0.02139-1.2974-0.07129-1.9247-0.17822v3.4574h-3.4574v-12.86c1.0978-0.12832 2.2527-0.21386 3.4574-0.29228 1.2047-0.0499 2.3952-0.08554 3.5643-0.08554h0.54178c1.0622 0 1.9604 0.12119 2.6661 0.35643 0.69861 0.25663 1.2618 0.57742 1.6895 0.99801 0.41346 0.41346 0.70574 0.89108 0.88396 1.4543 0.16396 0.57742 0.23525 1.1691 0.23525 1.7822zm-6.1734 1.5327c0.68435 0 1.2047-0.03564 1.5826-0.1497 0.35643-0.08554 0.62732-0.21386 0.81267-0.39208 0.17822-0.18534 0.26376-0.37782 0.2994-0.61307 0.02139-0.22099 0.03564-0.49188 0.03564-0.75564 0-0.29228-0.01426-0.54178-0.03564-0.77703-0.03564-0.25663-0.12119-0.44911-0.28515-0.61307-0.17822-0.15683-0.42772-0.28515-0.77703-0.39208-0.34218-0.09267-0.84118-0.14257-1.4899-0.14257-0.41346 0-0.95524 0.01426-1.604 0.02851-0.6701 0.03564-1.3188 0.07841-1.9461 0.1497v3.4931c0.59168 0.07129 1.1691 0.12832 1.7109 0.14257 0.52039 0.02139 1.0978 0.02139 1.6966 0.02139zm12.696 6.7152c-1.0836 0-1.9675-0.12832-2.6661-0.37782-0.70574-0.23525-1.2618-0.57742-1.6966-1.0265-0.41346-0.43485-0.72-0.94099-0.88396-1.5113-0.15683-0.59881-0.2495-1.2047-0.2495-1.8748v-0.77703c0-0.66297 0.09267-1.276 0.2495-1.8748 0.16396-0.5703 0.47049-1.0764 0.88396-1.5113 0.43485-0.42772 0.99089-0.7699 1.6966-1.0265 0.69861-0.2495 1.5826-0.37782 2.6661-0.37782h0.53465c1.0836 0 1.9818 0.07129 2.6661 0.23525 0.68435 0.16396 1.2261 0.37782 1.604 0.66297 0.3992 0.29228 0.64871 0.6202 0.79841 0.97663 0.14257 0.37782 0.21386 0.7699 0.21386 1.1834v0.1996c0 0.38495-0.057 0.76277-0.1497 1.0978-0.0856 0.34931-0.32079 0.64871-0.68436 0.9196-0.35643 0.27089-0.88395 0.47049-1.5826 0.63445-0.69861 0.15683-1.6396 0.23525-2.8443 0.23525-0.57742 0-1.0978-0.03564-1.5897-0.07842-0.47762-0.0499-0.94811-0.14257-1.383-0.26376 0.02139 0.26376 0.05703 0.49901 0.12832 0.73425 0.08554 0.22099 0.22812 0.41346 0.42772 0.56316 0.22099 0.15683 0.52752 0.26376 0.90534 0.35643 0.37782 0.07129 0.89821 0.12832 1.5255 0.12832 0.31366 0 0.64871-0.02139 1.0265-0.03564 0.37782-0.03564 0.77703-0.07129 1.1762-0.10693 0.39208-0.05703 0.79128-0.11406 1.1834-0.18535 0.39921-0.07129 0.76277-0.15683 1.0836-0.2495v2.88c-0.32079 0.07129-0.68435 0.14257-1.0836 0.1996-0.39208 0.0499-0.79128 0.10693-1.2047 0.14257-0.41346 0.05703-0.82693 0.07129-1.2404 0.10693-0.39921 0.02139-0.79128 0.02139-1.1548 0.02139zm0.55604-7.9627c-0.50614 0-0.94098 0.03564-1.276 0.09267-0.36356 0.0499-0.63445 0.14257-0.84831 0.2495-0.22099 0.12832-0.39921 0.25663-0.50614 0.43485-0.10693 0.16396-0.1996 0.35643-0.25663 0.57742 0.38495 0.08554 0.77702 0.15683 1.2119 0.21386 0.43485 0.03564 0.9196 0.07129 1.4756 0.07129 0.57742 0 1.0051-0.03564 1.3331-0.07129 0.32079-0.05703 0.55604-0.10693 0.69861-0.17822 0.17109-0.07841 0.25663-0.14257 0.29228-0.23525 0.03564-0.07129 0.05703-0.16396 0.05703-0.25663 0-0.08554 0-0.17822-0.03564-0.28515-0.04277-0.10693-0.12832-0.21386-0.27089-0.30653-0.1497-0.09267-0.37782-0.16396-0.6701-0.21386-0.28515-0.05703-0.69861-0.09267-1.2047-0.09267zm9.6166-2.0174h2.9513v2.6804h-2.9513v3.0867c0 0.21386 0.0214 0.39208 0.0356 0.57029 0.0356 0.16396 0.10693 0.31366 0.21387 0.41346 0.11405 0.12832 0.29227 0.1996 0.54177 0.27089 0.23525 0.05703 0.57743 0.07841 1.0123 0.07841 0.2994 0 0.61306-0.02139 0.93385-0.03564 0.30654-0.04277 0.59881-0.09267 0.84832-0.16396v2.7944c-0.24951 0.06416-0.54178 0.10693-0.88396 0.14257-0.32792 0.03564-0.66297 0.0499-1.0265 0.0499-0.86257 0-1.604-0.08554-2.217-0.2495-0.59168-0.16396-1.0764-0.41346-1.4614-0.72-0.35643-0.30653-0.62732-0.70574-0.80554-1.1691-0.16396-0.47049-0.25663-1.0123-0.25663-1.604v-9.9801h0.76277l2.3026 1.3473zm12.447 2.6519c-0.59881-0.09267-1.1905-0.1497-1.7893-0.1497-1.0194 0-1.9746 0.12832-2.823 0.39921v6.701h-3.0582v-9.6023h0.76989l1.0265 0.61307c0.61307-0.32079 1.2618-0.57742 1.9604-0.74138 0.68435-0.17822 1.4614-0.2495 2.3097-0.2495 0.28515 0 0.57742 0.02139 0.84831 0.03564 0.24951 0.02139 0.5204 0.05703 0.75564 0.09267zm0.86257 1.7608c0-0.66297 0.0713-1.276 0.23525-1.8748 0.17822-0.5703 0.47049-1.0764 0.88396-1.5113 0.42772-0.42772 0.99088-0.7699 1.6895-1.0265 0.70574-0.2495 1.604-0.37782 2.6661-0.37782h0.54178c1.0764 0 1.9604 0.12832 2.6661 0.37782 0.69861 0.25663 1.2618 0.59881 1.6895 1.0265 0.42059 0.43485 0.72 0.94098 0.88395 1.5113 0.16396 0.59881 0.24951 1.2119 0.24951 1.8748v0.77703c0 0.6701-0.0855 1.276-0.24951 1.8748-0.16395 0.57029-0.46336 1.0764-0.88395 1.5113-0.42772 0.44911-0.99089 0.79128-1.6895 1.0265-0.70574 0.2495-1.5897 0.37782-2.6661 0.37782h-0.54178c-1.0622 0-1.9604-0.12832-2.6661-0.37782-0.69861-0.23525-1.2618-0.57742-1.6895-1.0265-0.41347-0.43485-0.70574-0.94099-0.88396-1.5113-0.16396-0.59881-0.23525-1.2047-0.23525-1.8748zm3.0653 0.39921c0 0.30653 0.0143 0.59168 0.0357 0.89821 0.0285 0.29228 0.12118 0.54178 0.2994 0.75564 0.16396 0.22099 0.43485 0.39921 0.79841 0.52039 0.35644 0.1497 0.87683 0.22099 1.5469 0.22099 0.66296 0 1.1905-0.07129 1.5469-0.22099 0.36356-0.12119 0.63445-0.2994 0.81267-0.52039 0.16396-0.21386 0.27089-0.46336 0.28515-0.75564 0.0428-0.30653 0.0428-0.59168 0.0428-0.89821 0-0.32792 0-0.61307-0.0428-0.9196-0.0143-0.29228-0.12119-0.54178-0.28515-0.75564-0.17822-0.22099-0.44911-0.3992-0.81267-0.52039-0.35643-0.1497-0.88396-0.22099-1.5469-0.22099-0.6701 0-1.1905 0.07129-1.5469 0.22099-0.36356 0.12119-0.63445 0.2994-0.79841 0.52039-0.17822 0.21386-0.27089 0.46336-0.2994 0.75564-0.0214 0.30653-0.0357 0.59168-0.0357 0.9196zm10.643-9.6023 2.3026 1.3331v13.06h-3.0796v-14.393zm9.2174 14.771c-1.0764 0-1.9604-0.12832-2.6661-0.37782-0.71999-0.23525-1.276-0.57742-1.6895-1.0265-0.43485-0.43485-0.72-0.94099-0.88396-1.5113-0.16396-0.59881-0.2495-1.2047-0.2495-1.8748v-0.77703c0-0.66297 0.0855-1.276 0.2495-1.8748 0.16396-0.5703 0.44911-1.0764 0.88396-1.5113 0.41346-0.42772 0.9695-0.7699 1.6895-1.0265 0.70574-0.2495 1.5897-0.37782 2.6661-0.37782h0.52752c1.0978 0 1.9746 0.07129 2.6804 0.23525 0.68435 0.16396 1.219 0.37782 1.604 0.66297 0.37782 0.29228 0.64871 0.6202 0.79128 0.97663 0.14257 0.37782 0.1996 0.7699 0.1996 1.1834v0.1996c0 0.38495-0.0356 0.76277-0.14257 1.0978-0.0927 0.34931-0.32792 0.64871-0.6701 0.9196-0.35643 0.27089-0.89821 0.47049-1.5826 0.63445-0.70574 0.15683-1.661 0.23525-2.8443 0.23525-0.57743 0-1.1192-0.03564-1.604-0.07842-0.49188-0.0499-0.94098-0.14257-1.3901-0.26376 0.0143 0.26376 0.0713 0.49901 0.14257 0.73425 0.0713 0.22099 0.22099 0.41346 0.43485 0.56316 0.21386 0.15683 0.49901 0.26376 0.88396 0.35643 0.39208 0.07129 0.89821 0.12832 1.5469 0.12832 0.30654 0 0.64871-0.02139 1.0265-0.03564 0.37782-0.03564 0.75564-0.07129 1.1691-0.10693 0.3992-0.05703 0.79841-0.11406 1.1905-0.18535 0.37782-0.07129 0.73426-0.15683 1.0836-0.2495v2.88c-0.3493 0.07129-0.70574 0.14257-1.0836 0.1996-0.39207 0.0499-0.79128 0.10693-1.2261 0.14257-0.41346 0.05703-0.81267 0.07129-1.2261 0.10693-0.41346 0.02139-0.79128 0.02139-1.1548 0.02139zm0.56317-7.9627c-0.52753 0-0.95525 0.03564-1.2974 0.09267-0.34218 0.0499-0.63446 0.14257-0.84832 0.2495-0.21386 0.12832-0.37782 0.25663-0.48475 0.43485-0.12831 0.16396-0.1996 0.35643-0.25663 0.57742 0.36356 0.08554 0.77703 0.15683 1.1905 0.21386 0.42772 0.03564 0.93386 0.07129 1.4899 0.07129 0.56317 0 1.0123-0.03564 1.3188-0.07129 0.32792-0.05703 0.56316-0.10693 0.72-0.17822 0.14257-0.07841 0.25663-0.14257 0.29227-0.23525 0.0285-0.07129 0.0499-0.16396 0.0499-0.25663 0-0.08554-0.0214-0.17822-0.0499-0.28515-0.0214-0.10693-0.11406-0.21386-0.27089-0.30653-0.14257-0.09267-0.36356-0.16396-0.64871-0.21386-0.30653-0.05703-0.70574-0.09267-1.2047-0.09267zm11.777 7.9627c-1.0265 0-1.8962-0.12832-2.5734-0.37782-0.68435-0.23525-1.2261-0.57742-1.6467-1.0265-0.39207-0.43485-0.68435-0.94099-0.84118-1.5113-0.14257-0.59881-0.23525-1.2047-0.23525-1.8748v-5.1897h3.0796v4.8119c0 0.30653 0 0.59168 0.0356 0.89821 0.0214 0.29228 0.10693 0.54178 0.27089 0.75564 0.14257 0.22099 0.3992 0.39921 0.74138 0.52039 0.32079 0.1497 0.80554 0.22099 1.44 0.22099 0.62732 0 1.1121-0.07129 1.4614-0.22099 0.32079-0.12119 0.57029-0.2994 0.73425-0.52039 0.14258-0.21386 0.23525-0.46336 0.24951-0.75564 0.0356-0.30653 0.057-0.59168 0.057-0.89821v-4.8119h3.0582v5.1897c0 0.6701-0.0855 1.276-0.2495 1.8748-0.16396 0.57029-0.44911 1.0764-0.84832 1.5113-0.41346 0.44911-0.95524 0.79128-1.6182 1.0265-0.68435 0.2495-1.5327 0.37782-2.5734 0.37782zm7.9414-9.9801 0.93386 0.55604c0.63445-0.2994 1.2974-0.53465 2.0032-0.69861 0.69861-0.16396 1.4542-0.23525 2.2669-0.23525 0.88396 0 1.6396 0.09267 2.2527 0.28515 0.59168 0.1996 1.1192 0.45624 1.5113 0.79841 0.64871-0.36356 1.3188-0.62732 2.0174-0.81267 0.70574-0.17822 1.4756-0.27089 2.324-0.27089 1.0123 0 1.8535 0.12832 2.5236 0.37782 0.66297 0.25663 1.2048 0.57742 1.5968 1.0123 0.37782 0.42772 0.6487 0.93386 0.81266 1.5255 0.16396 0.57742 0.24951 1.2119 0.24951 1.8748v5.1897h-3.0725v-4.7905c0-0.32792-0.0214-0.61307-0.0357-0.89821-0.0214-0.29228-0.11405-0.54178-0.23524-0.77703-0.14258-0.22099-0.36356-0.3992-0.64871-0.52039-0.29228-0.1497-0.70574-0.22099-1.2404-0.22099-0.56317 0-1.105 0.05703-1.5897 0.12832-0.48475 0.09267-0.9695 0.21386-1.4186 0.37782 0.0499 0.2495 0.0855 0.48475 0.10693 0.75564 0.0356 0.25663 0.0356 0.50614 0.0356 0.75564v5.1897h-3.0653v-4.7905c0-0.32792-0.0214-0.61307-0.0356-0.89821-0.0357-0.29228-0.10693-0.54178-0.24951-0.77703-0.12831-0.22099-0.34217-0.3992-0.62732-0.52039-0.31366-0.1497-0.72713-0.22099-1.2618-0.22099-1.0479 0-2.0032 0.16396-2.8515 0.47049v6.7366h-3.0795v-9.6023zm-123.82 1.9105c0 7.1714 5.2752 12.19 10.985 12.19h1.8321c5.7528 0 10.992-5.2538 10.992-12.19 0-2.7944-2.3952-6.6653-3.9136-8.8966-2.7517-4.0562-5.6887-9.9231-7.9912-14.264-0.6701 0.48475-3.7853 6.6796-4.5766 8.2336-2.1243 3.7782-7.3283 11.235-7.3283 14.927zm10.964-4.7762c0.79128-0.03564 2.7731-0.08554 3.4075 0.1497 0.7699 0.30653 1.4543 1.0622 1.4543 2.1457 0 1.0194-0.69861 1.8321-1.4543 2.103-0.59168 0.21386-2.6519 0.1996-3.4218 0.16396zm-2.2812-2.2669c0.98376-0.0499 5.1326-0.07129 5.9382 0.12832 1.5327 0.37782 2.7731 1.4899 3.2293 2.8443 0.80554 2.5022-0.31366 5.04-2.7802 5.874-0.9695 0.32079-2.9156 0.26376-4.1061 0.2495v-0.81267c2.1457-0.03564 4.1631 0.32792 5.5105-1.3117 0.76277-0.90534 1.1406-2.4665 0.58455-3.8352-0.45624-1.1192-1.3758-1.9461-2.7232-2.2527-0.48475-0.10693-4.5053-0.17822-4.8618-0.05703l0.01426 14.393 1.4614-0.01426 0.01426-4.6479h2.5022c3.4075 0 6.1307-2.6519 6.1093-6.0736-0.03564-3.3861-2.7374-5.9596-6.1592-5.9596h-6.2091v8.2835l-4.4198 0.02139 0.02139 1.4542 4.3984 0.02139v0.7699l-4.4198 0.02139 0.02139 1.4614 4.3984 0.01426 0.02852 4.6479 1.4471-0.01426z" stroke-width=".71287"/>
 
</svg>
