<?xml version="1.0" encoding="UTF-8"?>
<svg clip-rule="evenodd" fill-rule="evenodd" image-rendering="optimizeQuality" shape-rendering="geometricPrecision" text-rendering="geometricPrecision" version="1.1" viewBox="0 0 931.41 1024" xml:space="preserve" xmlns="http://www.w3.org/2000/svg">
 <defs>
  <style type="text/css">
   <![CDATA[
    .fil0 {fill:none}
    .fil1 {fill:#60A44D}
   ]]>
  </style>
 </defs>
  
 <path class="fil1" d="m397.82 391.44c23.882-1.1494 124.65-1.6603 144.19 3.1928 37.292 9.1953 67.305 36.143 78.416 69.093 19.54 60.791-7.535 122.35-67.432 142.66-23.627 7.7905-70.881 6.3856-99.744 6.0025v-19.668c52.107-0.89399 101.02 7.9182 133.84-31.928 18.518-21.967 27.586-59.897 14.176-93.103-11.111-27.203-33.461-47.254-66.155-54.789-11.75-2.5543-109.45-4.2145-118.13-1.4048l0.38313 349.68 35.504-0.38313 0.38314-112.9h60.664c82.758 0 148.91-64.367 148.4-147.51-0.76628-82.247-66.411-144.7-149.55-144.7h-150.83v201.15l-107.41 0.51085 0.51085 35.376 106.9 0.51085v18.646l-107.41 0.51085 0.51085 35.504 106.9 0.38313 0.63857 112.9 35.249-0.38313zm55.427 55.172c19.157-0.89399 67.305-2.1711 82.758 3.576 18.646 7.4073 35.249 25.798 35.249 52.107 0 24.776-16.986 44.444-35.249 51.085-14.432 5.2362-64.495 4.8531-83.141 3.9591zm-266.41 115.96c0 174.2 128.22 296.04 266.92 296.04h44.444c139.72 0 267.05-127.58 267.05-296.04 0-67.943-58.237-161.94-95.146-216.09-66.794-98.594-138.19-240.99-194-346.48-16.347 11.75-91.953 162.2-111.24 200-51.596 91.698-178.03 272.92-178.03 362.58zm415.96-449.29c190.42 58.62 328.6 235.76 328.6 445.33 0 257.21-208.3 465.38-465.38 465.38-257.34 0-466.02-208.17-466.02-465.38 0-215.32 145.72-396.42 344.31-449.68-10.983 20.562-21.456 41.507-32.439 62.451l-75.989 135.76c-50.957 82.63-108.94 151.72-108.94 255.43 0 159.13 97.572 310.09 257.21 348.14 22.861 5.2362 46.36 8.3013 69.603 8.3013h44.444c21.456 0 42.911-2.5542 63.856-7.4073 160.15-35.887 263.09-189.4 263.09-349.04 0-82.63-59.642-182.5-104.98-249.93-42.528-62.451-80.459-130.65-117.37-199.36z" stroke-width="12.771"/>
 
</svg>
