<?xml version="1.0" encoding="UTF-8"?>
<svg clip-rule="evenodd" fill-rule="evenodd" image-rendering="optimizeQuality" shape-rendering="geometricPrecision" text-rendering="geometricPrecision" version="1.1" viewBox="0 0 29.107 32" xmlns="http://www.w3.org/2000/svg">
 <defs>
  <style type="text/css"><![CDATA[
    .fil0 {fill:none}
    .fil1 {fill:#60A44D}
   ]]></style>
 </defs>
 <path class="fil1" d="m12.432 12.233c0.74632-0.0359 3.8954-0.0519 4.506 0.0998 1.1654 0.28736 2.1033 1.1295 2.4505 2.1592 0.61063 1.8997-0.23547 3.8235-2.1073 4.4582-0.73835 0.24345-2.215 0.19955-3.117 0.18758v-0.61463c1.6284-0.0279 3.1569 0.24744 4.1825-0.99776 0.57869-0.68648 0.86207-1.8718 0.443-2.9095-0.34722-0.8501-1.0457-1.4767-2.0674-1.7122-0.36719-0.0798-3.4204-0.13171-3.6916-0.0439l0.012 10.928 1.1095-0.012 0.012-3.5282h1.8958c2.5862 0 4.6535-2.0115 4.6375-4.6097-0.024-2.5702-2.0754-4.5219-4.6735-4.5219h-4.7135v6.286l-3.3566 0.016 0.016 1.1055 3.3407 0.016v0.58269l-3.3566 0.016 0.016 1.1095 3.3407 0.012 0.0199 3.5282 1.1015-0.012zm1.7321 1.7241c0.59867-0.0279 2.1033-0.0679 2.5862 0.11175 0.58269 0.23148 1.1015 0.8062 1.1015 1.6284 0 0.77426-0.53082 1.3889-1.1015 1.5964-0.45101 0.16363-2.0155 0.15166-2.5982 0.12372zm-8.3254 3.6238c0 5.4438 4.0069 9.2513 8.3413 9.2513h1.3889c4.3663 0 8.3454-3.9869 8.3454-9.2513 0-2.1232-1.8199-5.0607-2.9733-6.7529-2.0873-3.0811-4.3185-7.531-6.0626-10.828-0.51085 0.36719-2.8736 5.0688-3.4763 6.2501-1.6124 2.8656-5.5635 8.5288-5.5635 11.331zm12.999-14.04c5.9507 1.8319 10.269 7.3676 10.269 13.917 0 8.0379-6.5094 14.543-14.543 14.543-8.042 0-14.563-6.5054-14.563-14.543 0-6.7288 4.5538-12.388 10.76-14.053-0.34323 0.64256-0.67051 1.2971-1.0137 1.9516l-2.3747 4.2425c-1.5924 2.5822-3.4044 4.7413-3.4044 7.9823 0 4.9729 3.0492 9.6904 8.0379 10.879 0.71441 0.16363 1.4488 0.25941 2.1751 0.25941h1.3889c0.67051 0 1.341-0.0798 1.9955-0.23148 5.0047-1.1215 8.2216-5.9188 8.2216-10.908 0-2.5822-1.8638-5.7032-3.2807-7.8104-1.329-1.9516-2.5144-4.0828-3.6678-6.2301z" stroke-width=".3991"/>
</svg>
